# xmcd
#
# Track frame offsets:
#	150
#	7510
#	21502
#	39300
#	56102
#	73805
#	85554
#	99231
#	113436
#	126698
#	142821
#	159605
#	176024
#	195893
#	211125
#	228675
#	241291
#	256076
#	278100
#	302366
#
# Disc length: 4152 seconds
#
# Revision: 0
# Processed by: cddbd v1.5.1PL2 Copyright (c) Steve Scherf et al.
# Submitted via: audiograbber 1.81.02
#
DISCID=fd103614
DTITLE=Emílio and Eduardo - Ao Vivo
DYEAR=2005
DGENRE=
TTITLE0=Abertura Show
TTITLE1=Rodopiou
TTITLE2=Maluco de paixão
TTITLE3=Hey Saudade
TTITLE4=Bebedeira
TTITLE5=Fogo na Botina
TTITLE6=Sapatiô, Sapatiô
TTITLE7=Tendel
TTITLE8=Minha Luz
TTITLE9=Cara de Boi
TTITLE10=Vendaval de Ilusões
TTITLE11=Tropé
TTITLE12=Você Virou Saudade
TTITLE13=Ame Quem Te Ama
TTITLE14=Peão de Caminhonete
TTITLE15=Chora Carolina
TTITLE16=Da Pá Virada
TTITLE17=Sinônimos
TTITLE18=Do Seu Lado
TTITLE19=Encerramento Show
EXTD=
EXTT0=
EXTT1=
EXTT2=
EXTT3=
EXTT4=
EXTT5=
EXTT6=
EXTT7=
EXTT8=
EXTT9=
EXTT10=
EXTT11=
EXTT12=
EXTT13=
EXTT14=
EXTT15=
EXTT16=
EXTT17=
EXTT18=
EXTT19=
PLAYORDER=
